<svg width="118" height="121" viewBox="0 0 118 121" fill="none" xmlns="http://www.w3.org/2000/svg">
<path d="M3.588 30.024H113.54V55.368H98.308V41.672H18.18V53.576H3.588V30.024ZM97.156 0.0719986L107.396 10.312C100.825 11.6773 93.572 12.872 85.636 13.896C77.7 14.8347 69.4653 15.6453 60.932 16.328C52.3987 16.9253 43.78 17.4373 35.076 17.864C26.4573 18.2053 18.1373 18.4613 10.116 18.632C9.94533 16.9253 9.56133 14.9627 8.964 12.744C8.36667 10.5253 7.72667 8.73333 7.044 7.368C14.98 7.19733 23.1293 6.94133 31.492 6.6C39.8547 6.17333 48.0467 5.66133 56.068 5.064C64.0893 4.46666 71.5987 3.78399 78.596 3.01599C85.6787 2.16266 91.8653 1.18133 97.156 0.0719986ZM19.076 19.016L31.236 13.896C33.028 16.0293 34.7773 18.4613 36.484 21.192C38.1907 23.8373 39.3427 26.2267 39.94 28.36L27.14 33.864C26.5427 31.816 25.476 29.384 23.94 26.568C22.404 23.752 20.7827 21.2347 19.076 19.016ZM46.852 16.328L59.14 11.848C60.8467 14.2373 62.4253 16.8827 63.876 19.784C65.412 22.6853 66.4787 25.2453 67.076 27.464L54.02 32.328C53.5933 30.1093 52.6973 27.5067 51.332 24.52C49.9667 21.5333 48.4733 18.8027 46.852 16.328ZM78.852 52.168L89.092 44.872C91.652 46.7493 94.212 48.84 96.772 51.144C99.4173 53.3627 101.849 55.6667 104.068 58.056C106.372 60.36 108.164 62.536 109.444 64.584L98.436 72.776C97.2413 70.728 95.5773 68.5093 93.444 66.12C91.3107 63.6453 88.964 61.2133 86.404 58.824C83.844 56.3493 81.3267 54.1307 78.852 52.168ZM46.084 44.872L53.38 37.064C56.6227 38.2587 60.036 39.8373 63.62 41.8C67.204 43.7627 70.02 45.5973 72.068 47.304L64.388 55.88C62.4253 54.1733 59.6947 52.2533 56.196 50.12C52.7827 47.9867 49.412 46.2373 46.084 44.872ZM87.428 11.976L102.404 16.84C100.1 20.2533 97.7533 23.5813 95.364 26.824C93.06 29.9813 90.884 32.6693 88.836 34.888L77.444 30.536C78.5533 28.8293 79.748 26.9093 81.028 24.776C82.308 22.5573 83.5027 20.3387 84.612 18.12C85.7213 15.816 86.66 13.768 87.428 11.976ZM80.26 75.976H83.332L85.892 75.464L95.492 81.608C91.4813 87.8373 86.4467 93.2133 80.388 97.736C74.3293 102.259 67.5027 106.013 59.908 109C52.3133 112.072 44.164 114.547 35.46 116.424C26.8413 118.387 17.924 119.837 8.708 120.776C8.28133 119.581 7.59867 118.173 6.66 116.552C5.80667 115.016 4.82533 113.48 3.716 111.944C2.692 110.408 1.71067 109.171 0.772 108.232C9.732 107.549 18.308 106.525 26.5 105.16C34.7773 103.709 42.4147 101.789 49.412 99.4C56.4093 97.0107 62.5533 94.0667 67.844 90.568C73.1347 87.0693 77.2733 82.9307 80.26 78.152V75.976ZM38.788 83.144C42.372 86.8133 46.8093 90.056 52.1 92.872C57.476 95.688 63.5347 98.0773 70.276 100.04C77.1027 101.917 84.484 103.453 92.42 104.648C100.356 105.757 108.676 106.525 117.38 106.952C116.356 108.061 115.289 109.427 114.18 111.048C113.071 112.669 112.004 114.333 110.98 116.04C110.041 117.747 109.231 119.283 108.548 120.648C99.6733 119.88 91.2253 118.643 83.204 116.936C75.1827 115.315 67.716 113.181 60.804 110.536C53.892 107.976 47.5773 104.819 41.86 101.064C36.1427 97.3093 31.108 92.9147 26.756 87.88L38.788 83.144ZM45.316 65.608L58.628 70.216C55.044 74.6533 50.7773 78.792 45.828 82.632C40.964 86.472 35.8013 89.8853 30.34 92.872C24.8787 95.8587 19.3747 98.4187 13.828 100.552C13.06 99.6987 12.036 98.632 10.756 97.352C9.56133 96.072 8.28133 94.8347 6.916 93.64C5.636 92.36 4.484 91.336 3.46 90.568C9.092 88.8613 14.5107 86.7707 19.716 84.296C25.0067 81.736 29.8707 78.92 34.308 75.848C38.7453 72.6907 42.4147 69.2773 45.316 65.608ZM35.076 47.304H49.284V56.136C49.284 57.672 49.5827 58.6107 50.18 58.952C50.8627 59.2933 52.3133 59.464 54.532 59.464C54.9587 59.464 55.7693 59.464 56.964 59.464C58.1587 59.464 59.4813 59.464 60.932 59.464C62.3827 59.464 63.748 59.464 65.028 59.464C66.308 59.464 67.2467 59.464 67.844 59.464C68.9533 59.464 69.8067 59.336 70.404 59.08C71.0013 58.7387 71.428 58.1413 71.684 57.288C72.0253 56.4347 72.2813 55.1547 72.452 53.448C73.8173 54.216 75.652 54.984 77.956 55.752C80.26 56.52 82.308 57.0747 84.1 57.416C83.6733 60.744 82.9053 63.3467 81.796 65.224C80.772 67.016 79.2787 68.296 77.316 69.064C75.3533 69.7467 72.7933 70.088 69.636 70.088C68.9533 70.088 68.0573 70.088 66.948 70.088C65.8387 70.088 64.5587 70.088 63.108 70.088C61.7427 70.088 60.3347 70.088 58.884 70.088C57.5187 70.088 56.2813 70.088 55.172 70.088C54.0627 70.088 53.1667 70.088 52.484 70.088C47.876 70.088 44.292 69.704 41.732 68.936C39.172 68.0827 37.4227 66.6747 36.484 64.712C35.5453 62.664 35.076 59.848 35.076 56.264V47.304ZM23.428 47.176L34.948 52.168C33.156 56.264 30.8947 60.2747 28.164 64.2C25.4333 68.04 21.9347 71.2827 17.668 73.928L7.172 65.48C10.8413 63.432 14.084 60.7867 16.9 57.544C19.716 54.216 21.892 50.76 23.428 47.176ZM42.116 75.976H83.844V86.472H31.62L42.116 75.976Z" fill="#ffffff80"/>
</svg>
