<svg width="566" height="200" viewBox="0 0 566 200" fill="none" xmlns="http://www.w3.org/2000/svg">
<g clip-path="url(#clip0_1921_78)">
<path d="M139.706 97.0966V89.7166C139.706 87.8873 138.222 86.4037 136.393 86.4037H111.718C109.889 86.4037 108.405 87.8873 108.405 89.7166V96.5881H96.2875L91.2541 94.5617L94.1789 88.0011C94.5361 87.1983 94.5604 86.2867 94.2462 85.4662C93.9321 84.6457 93.3043 83.9837 92.502 83.6259L70.0439 73.6137C69.2416 73.256 68.33 73.2322 67.509 73.5458C66.6885 73.86 66.0265 74.4878 65.6687 75.2906L62.2779 82.8965L55.9111 80.3334C55.518 80.1749 55.0978 80.0938 54.6743 80.0938H47.773V72.6707C47.773 70.8414 46.2894 69.3578 44.4601 69.3578H19.7851C17.9559 69.3578 16.4722 70.8414 16.4722 72.6707V80.0949H14.0268C6.29228 80.0949 0 86.3872 0 94.1217C0 101.856 6.29228 108.148 14.0268 108.148H54.0327L94.4086 124.403C94.8017 124.561 95.2219 124.642 95.6454 124.642H135.973C143.707 124.642 149.999 118.35 149.999 110.615C150 104.174 145.634 98.736 139.706 97.0966ZM135.973 118.016H96.2875L55.9122 101.762C55.5185 101.604 55.0984 101.523 54.6749 101.523H14.0268C9.9453 101.523 6.62578 98.2026 6.62578 94.1217C6.62578 90.0407 9.94585 86.7207 14.0268 86.7207H54.0327L94.4086 102.975C94.8017 103.133 95.2219 103.214 95.6454 103.214H135.973C140.054 103.214 143.374 106.535 143.374 110.615C143.374 114.696 140.054 118.016 135.973 118.016ZM115.031 93.0301H133.08V96.5887H115.031V93.0301ZM70.3719 81.0153L86.7784 88.3296L85.1032 92.0864L68.4289 85.374L70.3719 81.0153ZM23.098 75.9836H41.1472V80.0949H23.098V75.9836Z" fill="black"/>
<path d="M14.0966 88.9856C11.2641 88.9856 8.95996 91.2897 8.95996 94.1217C8.95996 96.9536 11.2641 99.2578 14.0966 99.2578C16.9286 99.2578 19.2327 96.9536 19.2327 94.1217C19.2327 91.2897 16.9286 88.9856 14.0966 88.9856ZM14.0966 95.6114C13.275 95.6114 12.6069 94.9433 12.6069 94.1217C12.6069 93.3001 13.275 92.632 14.0966 92.632C14.9176 92.632 15.5857 93.3001 15.5857 94.1217C15.5857 94.9433 14.9182 95.6114 14.0966 95.6114Z" fill="black"/>
<path d="M135.79 105.479C132.958 105.479 130.654 107.783 130.654 110.615C130.654 113.447 132.958 115.752 135.79 115.752C138.623 115.752 140.927 113.447 140.927 110.615C140.926 107.783 138.623 105.479 135.79 105.479ZM135.79 112.105C134.969 112.105 134.301 111.437 134.301 110.615C134.301 109.794 134.969 109.126 135.79 109.126C136.612 109.126 137.28 109.794 137.28 110.615C137.28 111.437 136.612 112.105 135.79 112.105Z" fill="black"/>
<path d="M99.837 70.4318V78H96.2063V60.5455H99.7347V67.2188H99.8881C100.184 66.446 100.661 65.8409 101.32 65.4034C101.979 64.9602 102.806 64.7386 103.8 64.7386C104.709 64.7386 105.502 64.9375 106.178 65.3352C106.86 65.7273 107.388 66.2926 107.763 67.0312C108.144 67.7642 108.331 68.642 108.326 69.6648V78H104.695V70.3125C104.701 69.5057 104.496 68.8778 104.081 68.429C103.672 67.9801 103.098 67.7557 102.36 67.7557C101.865 67.7557 101.428 67.8608 101.047 68.071C100.672 68.2812 100.377 68.5881 100.161 68.9915C99.9506 69.3892 99.8426 69.8693 99.837 70.4318ZM116.741 78.2557C115.394 78.2557 114.235 77.983 113.263 77.4375C112.298 76.8864 111.553 76.108 111.031 75.1023C110.508 74.0909 110.246 72.8949 110.246 71.5142C110.246 70.1676 110.508 68.9858 111.031 67.9688C111.553 66.9517 112.289 66.1591 113.238 65.5909C114.192 65.0227 115.312 64.7386 116.596 64.7386C117.459 64.7386 118.263 64.8778 119.008 65.1562C119.758 65.429 120.411 65.8409 120.968 66.392C121.531 66.9432 121.968 67.6364 122.281 68.4716C122.593 69.3011 122.749 70.2727 122.749 71.3864V72.3835H111.695V70.1335H119.332C119.332 69.6108 119.218 69.1477 118.991 68.7443C118.763 68.3409 118.448 68.0256 118.045 67.7983C117.647 67.5653 117.184 67.4489 116.656 67.4489C116.104 67.4489 115.616 67.5767 115.19 67.8324C114.769 68.0824 114.44 68.4205 114.201 68.8466C113.962 69.267 113.84 69.7358 113.834 70.2528V72.392C113.834 73.0398 113.954 73.5994 114.192 74.071C114.437 74.5426 114.781 74.9062 115.224 75.1619C115.667 75.4176 116.192 75.5455 116.8 75.5455C117.204 75.5455 117.573 75.4886 117.908 75.375C118.244 75.2614 118.531 75.0909 118.769 74.8636C119.008 74.6364 119.19 74.358 119.315 74.0284L122.673 74.25C122.502 75.0568 122.153 75.7614 121.624 76.3636C121.102 76.9602 120.425 77.4261 119.596 77.7614C118.772 78.0909 117.82 78.2557 116.741 78.2557ZM128.341 60.5455V78H124.711V60.5455H128.341ZM134.472 60.5455V78H130.842V60.5455H134.472ZM142.887 78.2557C141.564 78.2557 140.419 77.9744 139.453 77.4119C138.493 76.8437 137.751 76.054 137.228 75.0426C136.706 74.0256 136.444 72.8466 136.444 71.5057C136.444 70.1534 136.706 68.9716 137.228 67.9602C137.751 66.9432 138.493 66.1534 139.453 65.5909C140.419 65.0227 141.564 64.7386 142.887 64.7386C144.211 64.7386 145.353 65.0227 146.314 65.5909C147.28 66.1534 148.024 66.9432 148.547 67.9602C149.069 68.9716 149.331 70.1534 149.331 71.5057C149.331 72.8466 149.069 74.0256 148.547 75.0426C148.024 76.054 147.28 76.8437 146.314 77.4119C145.353 77.9744 144.211 78.2557 142.887 78.2557ZM142.905 75.4432C143.507 75.4432 144.01 75.2727 144.413 74.9318C144.816 74.5852 145.12 74.1136 145.325 73.517C145.535 72.9205 145.64 72.2415 145.64 71.4801C145.64 70.7188 145.535 70.0398 145.325 69.4432C145.12 68.8466 144.816 68.375 144.413 68.0284C144.01 67.6818 143.507 67.5085 142.905 67.5085C142.297 67.5085 141.785 67.6818 141.37 68.0284C140.961 68.375 140.652 68.8466 140.441 69.4432C140.237 70.0398 140.135 70.7188 140.135 71.4801C140.135 72.2415 140.237 72.9205 140.441 73.517C140.652 74.1136 140.961 74.5852 141.37 74.9318C141.785 75.2727 142.297 75.4432 142.905 75.4432Z" fill="black"/>
<path d="M0.979326 63V45.5455H7.96796C9.25205 45.5455 10.3231 45.7358 11.181 46.1165C12.039 46.4972 12.6839 47.0256 13.1157 47.7017C13.5475 48.3722 13.7634 49.1449 13.7634 50.0199C13.7634 50.7017 13.6271 51.3011 13.3543 51.8182C13.0816 52.3295 12.7066 52.75 12.2293 53.0795C11.7577 53.4034 11.218 53.6335 10.61 53.7699V53.9403C11.2748 53.9687 11.8969 54.1562 12.4765 54.5028C13.0617 54.8494 13.5361 55.3352 13.8998 55.9602C14.2634 56.5795 14.4452 57.3182 14.4452 58.1761C14.4452 59.1023 14.2151 59.929 13.7549 60.6562C13.3003 61.3778 12.6271 61.9489 11.735 62.3693C10.843 62.7898 9.74353 63 8.43671 63H0.979326ZM4.66967 59.983H7.67819C8.7066 59.983 9.4566 59.7869 9.92819 59.3949C10.3998 58.9972 10.6356 58.4687 10.6356 57.8097C10.6356 57.3267 10.5191 56.9006 10.2861 56.5312C10.0532 56.1619 9.7208 55.8722 9.28899 55.6619C8.86285 55.4517 8.35433 55.3466 7.76342 55.3466H4.66967V59.983ZM4.66967 52.8494H7.40546C7.91114 52.8494 8.36001 52.7614 8.75205 52.5852C9.14978 52.4034 9.46228 52.1477 9.68955 51.8182C9.92251 51.4886 10.039 51.0938 10.039 50.6335C10.039 50.0028 9.81455 49.4943 9.36569 49.108C8.92251 48.7216 8.29183 48.5284 7.47364 48.5284H4.66967V52.8494ZM22.2851 63.2557C20.9612 63.2557 19.8164 62.9744 18.8504 62.4119C17.8902 61.8437 17.1487 61.054 16.626 60.0426C16.1033 59.0256 15.8419 57.8466 15.8419 56.5057C15.8419 55.1534 16.1033 53.9716 16.626 52.9602C17.1487 51.9432 17.8902 51.1534 18.8504 50.5909C19.8164 50.0227 20.9612 49.7386 22.2851 49.7386C23.609 49.7386 24.751 50.0227 25.7112 50.5909C26.6771 51.1534 27.4215 51.9432 27.9442 52.9602C28.4669 53.9716 28.7283 55.1534 28.7283 56.5057C28.7283 57.8466 28.4669 59.0256 27.9442 60.0426C27.4215 61.054 26.6771 61.8437 25.7112 62.4119C24.751 62.9744 23.609 63.2557 22.2851 63.2557ZM22.3021 60.4432C22.9044 60.4432 23.4073 60.2727 23.8107 59.9318C24.2141 59.5852 24.5181 59.1136 24.7226 58.517C24.9328 57.9205 25.0379 57.2415 25.0379 56.4801C25.0379 55.7188 24.9328 55.0398 24.7226 54.4432C24.5181 53.8466 24.2141 53.375 23.8107 53.0284C23.4073 52.6818 22.9044 52.5085 22.3021 52.5085C21.6942 52.5085 21.1828 52.6818 20.7681 53.0284C20.359 53.375 20.0493 53.8466 19.8391 54.4432C19.6345 55.0398 19.5323 55.7188 19.5323 56.4801C19.5323 57.2415 19.6345 57.9205 19.8391 58.517C20.0493 59.1136 20.359 59.5852 20.7681 59.9318C21.1828 60.2727 21.6942 60.4432 22.3021 60.4432ZM34.3118 55.4318V63H30.6811V49.9091H34.1413V52.2188H34.2947C34.5845 51.4574 35.0703 50.8551 35.7521 50.4119C36.4339 49.9631 37.2606 49.7386 38.2322 49.7386C39.1413 49.7386 39.9339 49.9375 40.6101 50.3352C41.2862 50.733 41.8118 51.3011 42.1868 52.0398C42.5618 52.7727 42.7493 53.6477 42.7493 54.6648V63H39.1186V55.3125C39.1243 54.5114 38.9197 53.8864 38.5049 53.4375C38.0902 52.983 37.5191 52.7557 36.7919 52.7557C36.3032 52.7557 35.8714 52.8608 35.4964 53.071C35.1271 53.2812 34.8373 53.5881 34.6271 53.9915C34.4226 54.3892 34.3174 54.8693 34.3118 55.4318ZM45.2028 49.9091H48.8335V63.6477C48.8335 64.6591 48.6346 65.4773 48.2369 66.1023C47.8391 66.7273 47.2681 67.1847 46.5238 67.4744C45.7852 67.7642 44.9016 67.9091 43.8732 67.9091C43.7482 67.9091 43.6289 67.9063 43.5153 67.9006C43.396 67.9006 43.271 67.8977 43.1403 67.892V65.054C43.2369 65.0597 43.3221 65.0625 43.396 65.0625C43.4641 65.0682 43.538 65.071 43.6175 65.071C44.2028 65.071 44.6119 64.946 44.8448 64.696C45.0835 64.4517 45.2028 64.0824 45.2028 63.5881V49.9091ZM47.0096 48.2216C46.4755 48.2216 46.0153 48.0426 45.6289 47.6847C45.2425 47.321 45.0494 46.8864 45.0494 46.3807C45.0494 45.8807 45.2425 45.4517 45.6289 45.0938C46.0153 44.7301 46.4755 44.5483 47.0096 44.5483C47.555 44.5483 48.0181 44.7301 48.3988 45.0938C48.7852 45.4517 48.9783 45.8807 48.9783 46.3807C48.9783 46.8864 48.7852 47.321 48.3988 47.6847C48.0181 48.0426 47.555 48.2216 47.0096 48.2216ZM57.2486 63.2557C55.9247 63.2557 54.7799 62.9744 53.8139 62.4119C52.8537 61.8437 52.1122 61.054 51.5895 60.0426C51.0668 59.0256 50.8054 57.8466 50.8054 56.5057C50.8054 55.1534 51.0668 53.9716 51.5895 52.9602C52.1122 51.9432 52.8537 51.1534 53.8139 50.5909C54.7799 50.0227 55.9247 49.7386 57.2486 49.7386C58.5725 49.7386 59.7145 50.0227 60.6747 50.5909C61.6406 51.1534 62.385 51.9432 62.9077 52.9602C63.4304 53.9716 63.6918 55.1534 63.6918 56.5057C63.6918 57.8466 63.4304 59.0256 62.9077 60.0426C62.385 61.054 61.6406 61.8437 60.6747 62.4119C59.7145 62.9744 58.5725 63.2557 57.2486 63.2557ZM57.2656 60.4432C57.8679 60.4432 58.3708 60.2727 58.7742 59.9318C59.1776 59.5852 59.4816 59.1136 59.6861 58.517C59.8963 57.9205 60.0014 57.2415 60.0014 56.4801C60.0014 55.7188 59.8963 55.0398 59.6861 54.4432C59.4816 53.8466 59.1776 53.375 58.7742 53.0284C58.3708 52.6818 57.8679 52.5085 57.2656 52.5085C56.6577 52.5085 56.1463 52.6818 55.7316 53.0284C55.3225 53.375 55.0128 53.8466 54.8026 54.4432C54.598 55.0398 54.4958 55.7188 54.4958 56.4801C54.4958 57.2415 54.598 57.9205 54.8026 58.517C55.0128 59.1136 55.3225 59.5852 55.7316 59.9318C56.1463 60.2727 56.6577 60.4432 57.2656 60.4432ZM74.0395 57.4261V49.9091H77.6701V63H74.1844V60.6222H74.048C73.7525 61.3892 73.2611 62.0057 72.5736 62.4716C71.8917 62.9375 71.0594 63.1705 70.0764 63.1705C69.2014 63.1705 68.4315 62.9716 67.7667 62.5739C67.102 62.1761 66.5821 61.6108 66.2071 60.8778C65.8378 60.1449 65.6503 59.267 65.6446 58.2443V49.9091H69.2753V57.5966C69.2809 58.3693 69.4883 58.9801 69.8974 59.429C70.3065 59.8778 70.8548 60.1023 71.5423 60.1023C71.9798 60.1023 72.3889 60.0028 72.7696 59.804C73.1503 59.5994 73.4571 59.2983 73.69 58.9006C73.9287 58.5028 74.0451 58.0114 74.0395 57.4261ZM80.1663 63V49.9091H83.6862V52.1932H83.8225C84.0612 51.3807 84.4617 50.767 85.0242 50.3523C85.5867 49.9318 86.2345 49.7216 86.9674 49.7216C87.1492 49.7216 87.3452 49.733 87.5555 49.7557C87.7657 49.7784 87.9504 49.8097 88.1095 49.8494V53.071C87.939 53.0199 87.7032 52.9744 87.4021 52.9347C87.1009 52.8949 86.8254 52.875 86.5754 52.875C86.0413 52.875 85.564 52.9915 85.1435 53.2244C84.7288 53.4517 84.3992 53.7699 84.1549 54.179C83.9163 54.5881 83.797 55.0597 83.797 55.5938V63H80.1663Z" fill="black"/>
</g>
<g clip-path="url(#clip1_1921_78)">
<path d="M379.725 98.5965V91.2305C379.725 89.4047 381.703 87.9239 384.142 87.9239H417.042C419.481 87.9239 421.459 89.4047 421.459 91.2305V98.0889H437.616L444.327 96.0664L440.428 89.5182C439.951 88.7169 439.919 87.8071 440.338 86.9882C440.757 86.1692 441.594 85.5085 442.664 85.1514L472.608 75.1583C473.677 74.8012 474.893 74.7775 475.988 75.0905C477.082 75.4041 477.964 76.0307 478.441 76.832L482.962 84.4234L491.452 81.8652C491.976 81.707 492.536 81.626 493.101 81.626H502.302V74.217C502.302 72.3913 504.281 70.9105 506.72 70.9105H539.62C542.059 70.9105 544.037 72.3913 544.037 74.217V81.6271H547.298C557.61 81.6271 566 87.9074 566 95.6271C566 103.347 557.61 109.627 547.298 109.627H493.956L440.121 125.85C439.597 126.009 439.037 126.09 438.472 126.09H384.702C374.39 126.09 366 119.809 366 112.09C365.999 105.66 371.821 100.233 379.725 98.5965ZM384.702 119.476H437.616L491.45 103.253C491.975 103.095 492.535 103.014 493.1 103.014H547.298C552.74 103.014 557.166 99.7003 557.166 95.6271C557.166 91.554 552.739 88.2402 547.298 88.2402H493.956L440.121 104.463C439.597 104.622 439.037 104.703 438.472 104.703H384.702C379.26 104.703 374.834 108.016 374.834 112.09C374.834 116.163 379.26 119.476 384.702 119.476ZM412.625 94.5376H388.559V98.0894H412.625V94.5376ZM472.17 82.5458L450.295 89.8461L452.529 93.5958L474.761 86.8961L472.17 82.5458ZM535.203 77.5236H511.137V81.6271H535.203V77.5236Z" fill="black"/>
<path d="M547.205 90.5009C550.982 90.5009 554.054 92.8006 554.054 95.6272C554.054 98.4537 550.982 100.753 547.205 100.753C543.429 100.753 540.357 98.4537 540.357 95.6272C540.357 92.8006 543.429 90.5009 547.205 90.5009ZM547.205 97.114C548.3 97.114 549.191 96.4472 549.191 95.6272C549.191 94.8071 548.3 94.1403 547.205 94.1403C546.11 94.1403 545.219 94.8071 545.219 95.6272C545.219 96.4472 546.109 97.114 547.205 97.114Z" fill="black"/>
<path d="M384.945 106.963C388.721 106.963 391.793 109.263 391.793 112.089C391.793 114.916 388.721 117.216 384.945 117.216C381.168 117.216 378.096 114.916 378.096 112.089C378.097 109.263 381.168 106.963 384.945 106.963ZM384.945 113.576C386.04 113.576 386.93 112.91 386.93 112.089C386.93 111.269 386.04 110.603 384.945 110.603C383.849 110.603 382.959 111.269 382.959 112.089C382.959 112.91 383.849 113.576 384.945 113.576Z" fill="black"/>
<path d="M497.101 48.072H512.221V50.76H510.013V63H506.653V56.736H503.101V57.264C503.101 58.68 502.501 59.328 501.421 59.328C499.837 59.328 497.845 57.192 497.845 55.608C497.845 54.672 498.253 54.048 499.717 54.048H506.653V50.76H497.101V48.072ZM525.235 50.76V63H521.899V57.816H517.507V58.176C517.507 59.52 516.859 60.096 515.827 60.096C514.219 60.096 512.227 57.984 512.227 56.496C512.227 55.776 512.587 55.128 514.027 55.128H514.147V50.76H511.459V48.072H527.443V50.76H525.235ZM521.899 50.76H517.507V55.128H521.899V50.76ZM533.355 63.552C530.715 60.936 529.011 58.848 528.219 57.408C527.691 56.52 527.499 55.824 527.499 55.2C527.499 54.192 528.099 53.496 529.299 53.496C530.067 53.496 530.691 53.832 531.267 54.336C531.723 53.808 531.915 53.16 531.915 52.344C531.915 51.768 531.819 51.216 531.627 50.76H526.707V48.072H539.307V50.76H534.963C535.155 51.336 535.251 51.936 535.251 52.704C535.251 53.664 534.987 54.432 534.555 55.08C535.371 55.32 536.139 55.416 537.027 55.416C537.963 55.416 538.827 55.344 539.763 55.2L539.883 57.768C539.067 58.032 538.251 58.104 537.291 58.104C535.827 58.104 534.195 57.768 532.683 56.952C532.395 57.144 532.059 57.312 531.699 57.456C532.803 58.752 534.291 60.144 535.827 61.536L533.355 63.552ZM549.456 50.76V63H546.096V56.016H543.048C541.464 56.016 540.624 56.592 540.624 57.84C540.624 59.04 541.488 60.12 543.12 61.632L540.648 63.552C538.512 61.464 537.264 59.688 537.264 57.456C537.264 54.648 539.16 53.328 542.592 53.328H546.096V50.76H536.424V48.072H551.664V50.76H549.456ZM545.811 48.24C544.707 44.904 544.203 44.232 542.835 44.232C542.259 44.232 541.611 44.376 541.059 44.592L540.219 41.976C541.083 41.64 542.043 41.496 542.979 41.496C545.931 41.496 547.035 42.888 548.691 48.24H545.811Z" fill="black"/>
<path d="M375.586 84V66.5455H379.276V73.7472H386.768V66.5455H390.45V84H386.768V76.7898H379.276V84H375.586ZM398.931 84.2557C397.607 84.2557 396.462 83.9744 395.496 83.4119C394.536 82.8437 393.795 82.054 393.272 81.0426C392.749 80.0256 392.488 78.8466 392.488 77.5057C392.488 76.1534 392.749 74.9716 393.272 73.9602C393.795 72.9432 394.536 72.1534 395.496 71.5909C396.462 71.0227 397.607 70.7386 398.931 70.7386C400.255 70.7386 401.397 71.0227 402.357 71.5909C403.323 72.1534 404.067 72.9432 404.59 73.9602C405.113 74.9716 405.374 76.1534 405.374 77.5057C405.374 78.8466 405.113 80.0256 404.59 81.0426C404.067 82.054 403.323 82.8437 402.357 83.4119C401.397 83.9744 400.255 84.2557 398.931 84.2557ZM398.948 81.4432C399.55 81.4432 400.053 81.2727 400.456 80.9318C400.86 80.5852 401.164 80.1136 401.368 79.517C401.579 78.9205 401.684 78.2415 401.684 77.4801C401.684 76.7188 401.579 76.0398 401.368 75.4432C401.164 74.8466 400.86 74.375 400.456 74.0284C400.053 73.6818 399.55 73.5085 398.948 73.5085C398.34 73.5085 397.829 73.6818 397.414 74.0284C397.005 74.375 396.695 74.8466 396.485 75.4432C396.28 76.0398 396.178 76.7188 396.178 77.4801C396.178 78.2415 396.28 78.9205 396.485 79.517C396.695 80.1136 397.005 80.5852 397.414 80.9318C397.829 81.2727 398.34 81.4432 398.948 81.4432ZM410.958 66.5455V84H407.327V66.5455H410.958ZM417.191 84.2472C416.356 84.2472 415.611 84.1023 414.958 83.8125C414.305 83.517 413.788 83.0824 413.407 82.5085C413.032 81.929 412.844 81.2074 412.844 80.3438C412.844 79.6165 412.978 79.0057 413.245 78.5114C413.512 78.017 413.876 77.6193 414.336 77.3182C414.796 77.017 415.319 76.7898 415.904 76.6364C416.495 76.483 417.114 76.375 417.762 76.3125C418.523 76.233 419.137 76.1591 419.603 76.0909C420.069 76.017 420.407 75.9091 420.617 75.767C420.827 75.625 420.932 75.4148 420.932 75.1364V75.0852C420.932 74.5455 420.762 74.1278 420.421 73.8324C420.086 73.5369 419.609 73.3892 418.989 73.3892C418.336 73.3892 417.816 73.5341 417.43 73.8239C417.043 74.108 416.788 74.4659 416.663 74.8977L413.305 74.625C413.475 73.8295 413.81 73.142 414.31 72.5625C414.81 71.9773 415.455 71.5284 416.245 71.2159C417.04 70.8977 417.961 70.7386 419.006 70.7386C419.734 70.7386 420.43 70.8239 421.094 70.9943C421.765 71.1648 422.359 71.429 422.876 71.7869C423.398 72.1449 423.81 72.6051 424.111 73.1676C424.413 73.7244 424.563 74.392 424.563 75.1705V84H421.12V82.1847H421.018C420.807 82.5938 420.526 82.9545 420.174 83.267C419.822 83.5739 419.398 83.8153 418.904 83.9915C418.41 84.1619 417.839 84.2472 417.191 84.2472ZM418.231 81.7415C418.765 81.7415 419.236 81.6364 419.645 81.4261C420.055 81.2102 420.376 80.9205 420.609 80.5568C420.841 80.1932 420.958 79.7812 420.958 79.321V77.9318C420.844 78.0057 420.688 78.0739 420.489 78.1364C420.296 78.1932 420.077 78.2472 419.833 78.2983C419.589 78.3437 419.344 78.3864 419.1 78.4261C418.856 78.4602 418.634 78.4915 418.435 78.5199C418.009 78.5824 417.637 78.6818 417.319 78.8182C417.001 78.9545 416.753 79.1392 416.577 79.3722C416.401 79.5994 416.313 79.8835 416.313 80.2244C416.313 80.7188 416.492 81.0966 416.85 81.358C417.214 81.6136 417.674 81.7415 418.231 81.7415Z" fill="black"/>
<path d="M440.35 78.5102C438.952 79.0191 437.818 79.2703 436.947 79.2637C436.091 79.2516 435.403 78.9996 434.884 78.5077C434.359 78.0007 433.904 77.2893 433.52 76.3735L428.482 64.0067L431.64 62.8575L436.127 73.7133C436.409 74.394 436.673 74.8853 436.919 75.1874C437.165 75.4894 437.475 75.6404 437.85 75.6403C438.24 75.6347 438.765 75.5115 439.427 75.2707C439.998 75.0628 440.459 75.0654 440.809 75.2785C441.168 75.4711 441.427 75.7855 441.586 76.2215C441.756 76.6876 441.74 77.1359 441.539 77.5666C441.333 77.9822 440.937 78.2967 440.35 78.5102ZM436.763 64.0661L436.188 62.4874L440.936 58.9715L441.527 60.5953L436.763 64.0661ZM437.625 66.4341L437.05 64.8554L441.798 61.3395L442.389 62.9633L437.625 66.4341ZM439.614 78.7781L438.691 75.5386C439.262 75.3307 439.694 75.1139 439.986 74.8883C440.294 74.6572 440.488 74.3482 440.568 73.9613C440.658 73.5539 440.656 73.0098 440.562 72.3291C440.482 71.6429 440.326 70.7462 440.093 69.6391L443.228 69.0599C443.28 69.2964 443.331 69.5759 443.38 69.8985C443.445 70.2156 443.512 70.5402 443.582 70.8724C443.661 71.184 443.75 71.4752 443.848 71.7458C443.98 72.1067 444.167 72.3875 444.41 72.5884C444.663 72.7688 445.017 72.8527 445.473 72.8403C445.943 72.8224 446.569 72.6711 447.351 72.3866C447.922 72.1786 448.383 72.1812 448.733 72.3944C449.077 72.5925 449.329 72.9095 449.488 73.3456C449.657 73.8117 449.642 74.26 449.441 74.6907C449.25 75.1008 448.861 75.4126 448.274 75.626C447.237 76.0036 446.359 76.2123 445.642 76.2522C444.924 76.2921 444.323 76.1364 443.837 75.7852C443.352 75.4341 442.916 74.8689 442.531 74.0899L443.613 73.6959C443.605 74.5161 443.5 75.2098 443.298 75.7772C443.09 76.3295 442.799 76.793 442.425 77.1676C442.051 77.5423 441.619 77.8527 441.129 78.0989C440.661 78.3547 440.156 78.5811 439.614 78.7781ZM445.517 82.5041C445.081 82.6628 444.65 82.6492 444.225 82.4635C443.815 82.2722 443.53 81.9586 443.371 81.5225C443.213 81.0865 443.224 80.6484 443.404 80.2082C443.605 79.7775 443.923 79.4829 444.359 79.3242C444.795 79.1655 445.221 79.1893 445.637 79.3956C446.073 79.6114 446.37 79.9373 446.529 80.3734C446.688 80.8094 446.664 81.2352 446.457 81.6508C446.266 82.061 445.953 82.3454 445.517 82.5041ZM447.886 75.7673L446.963 72.5279C447.775 72.2323 448.562 71.8945 449.327 71.5142C450.091 71.134 450.816 70.7168 451.502 70.2628C452.188 69.8088 452.817 69.3158 453.39 68.7839C453.977 68.2465 454.498 67.6654 454.952 67.0405C454.402 66.9341 453.829 66.8789 453.231 66.8749C452.634 66.871 452.018 66.9334 451.384 67.0621C450.759 67.1703 450.116 67.3447 449.455 67.5855C449.214 67.6731 448.961 67.7736 448.696 67.8872C448.446 67.9952 448.194 68.1211 447.939 68.2647C447.68 68.3932 447.426 68.5368 447.177 68.6955L445.601 65.7699C445.993 65.491 446.422 65.2414 446.887 65.0211C447.361 64.7804 447.786 64.5917 448.162 64.4548C448.974 64.1593 449.751 63.9787 450.493 63.9128C451.25 63.8415 451.964 63.8372 452.634 63.8999C453.319 63.9571 453.958 64.0307 454.553 64.1208C455.163 64.2054 455.726 64.2558 456.243 64.272C456.774 64.2828 457.258 64.2088 457.694 64.0501L458.529 63.7464L459.981 66.6146C459.346 66.88 458.783 67.2294 458.294 67.6629C457.814 68.0758 457.357 68.549 456.921 69.0822C456.494 69.5949 456.028 70.1391 455.523 70.7148C455.032 71.2849 454.451 71.8627 453.778 72.4479C453.106 73.0332 452.294 73.6096 451.343 74.1772C450.392 74.7448 449.239 75.2748 447.886 75.7673ZM462.999 76.0387L460.831 73.6608C461.53 73.1001 462.144 72.519 462.674 71.9174C463.219 71.3103 463.661 70.6984 463.998 70.0818C464.336 69.4652 464.547 68.8521 464.631 68.2424C464.71 67.6176 464.64 67.0046 464.422 66.4032C464.192 65.7717 463.797 65.1321 463.238 64.4843C462.679 63.8365 462.054 63.1956 461.363 62.5615L463.8 60.0654C464.241 60.433 464.657 60.8518 465.05 61.322C465.452 61.7716 465.797 62.1822 466.085 62.554C466.374 62.9257 466.568 63.1785 466.668 63.3125C467.141 63.9575 467.602 64.3347 468.05 64.4439C468.514 64.5477 469.159 64.4491 469.986 64.1481C470.557 63.9401 471.018 63.9427 471.368 64.1559C471.727 64.3485 471.987 64.6628 472.145 65.0989C472.315 65.5649 472.299 66.0133 472.099 66.444C471.892 66.8596 471.496 67.1741 470.91 67.3875C470.293 67.6119 469.719 67.7187 469.187 67.7079C468.655 67.6971 468.184 67.5708 467.772 67.329C467.376 67.0817 467.055 66.7387 466.81 66.3L467.817 66.4698C468.017 67.2995 468.027 68.1471 467.849 69.0124C467.69 69.8873 467.382 70.7486 466.925 71.5963C466.467 72.4439 465.899 73.2465 465.221 74.004C464.544 74.7615 463.803 75.4397 462.999 76.0387ZM470.553 67.5173L469.629 64.2778C469.975 64.152 470.238 63.9625 470.419 63.7096C470.609 63.4362 470.765 63.0472 470.888 62.5428C471.005 62.0233 471.116 61.3445 471.219 60.5066C471.342 59.4403 471.551 58.564 471.846 57.8777C472.156 57.1859 472.529 56.6417 472.963 56.2452C473.407 55.8281 473.892 55.5238 474.419 55.3323C475.08 55.0915 475.749 55.01 476.424 55.0877C477.099 55.1654 477.738 55.3758 478.339 55.7187C478.935 56.0466 479.461 56.4852 479.916 57.0346C480.381 57.5635 480.734 58.1587 480.975 58.8203C481.265 59.6171 481.355 60.4017 481.244 61.1741C481.143 61.926 480.861 62.5993 480.396 63.1941C479.941 63.7683 479.33 64.195 478.563 64.4741C477.917 64.7094 477.124 64.8702 476.185 64.9566C475.246 65.043 474.171 64.8978 472.961 64.5208L473.118 61.3733C473.965 61.5932 474.719 61.7016 475.382 61.6987C476.06 61.6903 476.595 61.615 476.986 61.4727C477.286 61.3632 477.523 61.2429 477.697 61.1116C477.871 60.9803 477.978 60.8306 478.019 60.6624C478.06 60.4943 478.039 60.2974 477.957 60.0719C477.842 59.7562 477.649 59.4603 477.379 59.1842C477.108 58.9082 476.804 58.7039 476.466 58.5714C476.138 58.4184 475.808 58.4021 475.478 58.5225C475.162 58.6374 474.935 58.8562 474.797 59.1789C474.669 59.481 474.579 59.8884 474.527 60.401C474.485 60.8931 474.425 61.4768 474.347 62.1522C474.253 62.9696 474.125 63.6716 473.964 64.2581C473.797 64.8295 473.575 65.319 473.298 65.7264C473.03 66.1133 472.667 66.4497 472.21 66.7356C471.767 67.0159 471.215 67.2765 470.553 67.5173Z" fill="black"/>
</g>
<path d="M356.408 134.34H159.593C159.388 134.34 159.185 134.3 158.995 134.221C158.806 134.143 158.634 134.028 158.489 133.883C158.343 133.738 158.228 133.566 158.15 133.376C158.071 133.186 158.031 132.983 158.031 132.778C158.031 132.573 158.071 132.37 158.15 132.18C158.228 131.991 158.343 131.818 158.489 131.673C158.634 131.528 158.806 131.413 158.995 131.335C159.185 131.256 159.388 131.216 159.593 131.216H356.408C356.613 131.216 356.817 131.256 357.006 131.335C357.196 131.413 357.368 131.528 357.513 131.673C357.658 131.818 357.773 131.991 357.851 132.18C357.93 132.37 357.97 132.573 357.97 132.778C357.97 132.983 357.93 133.186 357.851 133.376C357.773 133.565 357.658 133.738 357.513 133.883C357.368 134.028 357.195 134.143 357.006 134.221C356.816 134.3 356.613 134.34 356.408 134.34ZM258 149.954C254.554 149.954 251.752 147.154 251.752 143.706C251.752 140.259 254.554 137.458 258 137.458C261.448 137.458 264.249 140.259 264.249 143.706C264.249 147.154 261.448 149.954 258 149.954ZM258 140.582C256.278 140.582 254.876 141.986 254.876 143.706C254.876 145.427 256.278 146.83 258 146.83C259.722 146.83 261.125 145.427 261.125 143.706C261.125 141.986 259.722 140.582 258 140.582ZM231.464 190.573C231.231 190.572 231 190.52 230.789 190.419C230.578 190.318 230.392 190.17 230.246 189.988C230.099 189.806 229.996 189.593 229.942 189.365C229.889 189.137 229.887 188.901 229.938 188.672L236.186 160.556C236.375 159.714 237.22 159.192 238.05 159.369C238.454 159.459 238.806 159.706 239.028 160.055C239.251 160.405 239.326 160.828 239.237 161.233L232.989 189.349C232.912 189.696 232.719 190.006 232.441 190.229C232.164 190.451 231.82 190.572 231.464 190.573ZM284.536 190.573C284.181 190.573 283.836 190.451 283.559 190.229C283.282 190.006 283.088 189.696 283.011 189.349L276.764 161.233C276.674 160.828 276.749 160.405 276.971 160.056C277.194 159.706 277.546 159.459 277.95 159.369C278.789 159.192 279.625 159.714 279.814 160.556L286.062 188.672C286.112 188.901 286.111 189.137 286.058 189.365C286.004 189.593 285.901 189.805 285.754 189.988C285.608 190.17 285.422 190.317 285.212 190.419C285.001 190.52 284.77 190.572 284.536 190.573Z" fill="black"/>
<path d="M289.241 190.573H226.759C226.554 190.573 226.351 190.532 226.161 190.454C225.972 190.376 225.8 190.261 225.654 190.115C225.509 189.97 225.394 189.798 225.316 189.608C225.237 189.419 225.197 189.216 225.197 189.011C225.197 188.805 225.238 188.602 225.316 188.413C225.394 188.223 225.51 188.051 225.655 187.906C225.8 187.761 225.972 187.646 226.161 187.567C226.351 187.489 226.554 187.449 226.759 187.449H289.241C289.446 187.449 289.649 187.489 289.838 187.567C290.028 187.646 290.2 187.761 290.345 187.906C290.49 188.051 290.605 188.223 290.684 188.413C290.762 188.602 290.802 188.805 290.802 189.011C290.803 189.216 290.762 189.419 290.684 189.608C290.605 189.798 290.49 189.97 290.345 190.115C290.2 190.26 290.028 190.375 289.838 190.454C289.649 190.532 289.446 190.573 289.241 190.573ZM347.035 124.968H168.964C168.759 124.968 168.556 124.928 168.367 124.849C168.177 124.771 168.005 124.656 167.86 124.511C167.715 124.366 167.6 124.193 167.521 124.004C167.443 123.814 167.402 123.611 167.402 123.406V20.3125C167.402 20.1073 167.443 19.9041 167.521 19.7146C167.6 19.525 167.715 19.3527 167.86 19.2077C168.005 19.0626 168.177 18.9475 168.367 18.8691C168.556 18.7906 168.759 18.7503 168.964 18.7504H347.035C347.898 18.7504 348.597 19.4492 348.597 20.3125V123.406C348.597 123.611 348.557 123.814 348.479 124.004C348.4 124.193 348.285 124.366 348.14 124.511C347.995 124.656 347.822 124.771 347.633 124.849C347.443 124.928 347.24 124.968 347.035 124.968ZM170.527 121.844H345.473V21.8746H170.527V121.844Z" fill="black"/>
<path d="M347.035 28.1226H168.964C168.759 28.1227 168.556 28.0824 168.367 28.0039C168.177 27.9255 168.005 27.8104 167.86 27.6653C167.715 27.5203 167.6 27.348 167.521 27.1584C167.443 26.9689 167.402 26.7657 167.402 26.5605C167.402 26.3554 167.443 26.1522 167.521 25.9626C167.6 25.773 167.715 25.6008 167.86 25.4557C168.005 25.3106 168.177 25.1956 168.367 25.1171C168.556 25.0386 168.759 24.9983 168.964 24.9984H347.035C347.898 24.9984 348.597 25.6972 348.597 26.5605C348.597 26.7657 348.557 26.9689 348.479 27.1585C348.4 27.3481 348.285 27.5204 348.14 27.6655C347.995 27.8106 347.822 27.9256 347.633 28.004C347.443 28.0825 347.24 28.1228 347.035 28.1226Z" fill="black"/>
<path d="M175.306 24.9984C174.444 24.9984 173.729 24.3 173.729 23.4363C173.729 22.5726 174.412 21.8742 175.275 21.8742H175.306C176.169 21.8742 176.868 22.5726 176.868 23.4363C176.868 24.3 176.169 24.9984 175.306 24.9984ZM181.461 28.1226C181.256 28.1227 181.053 28.0824 180.863 28.0039C180.673 27.9255 180.501 27.8104 180.356 27.6653C180.211 27.5203 180.096 27.348 180.018 27.1584C179.939 26.9689 179.899 26.7657 179.899 26.5605V20.3125C179.899 20.1073 179.939 19.9041 180.018 19.7146C180.096 19.525 180.211 19.3527 180.356 19.2077C180.501 19.0626 180.673 18.9475 180.863 18.8691C181.053 18.7906 181.256 18.7503 181.461 18.7504C181.666 18.7503 181.869 18.7906 182.059 18.8691C182.248 18.9475 182.421 19.0626 182.566 19.2077C182.711 19.3527 182.826 19.525 182.904 19.7146C182.983 19.9041 183.023 20.1073 183.023 20.3125V26.5605C183.023 26.7657 182.983 26.9689 182.904 27.1585C182.826 27.3481 182.711 27.5204 182.566 27.6654C182.421 27.8105 182.249 27.9256 182.059 28.004C181.869 28.0825 181.666 28.1228 181.461 28.1226ZM193.957 28.1226C193.752 28.1227 193.549 28.0824 193.359 28.0039C193.17 27.9255 192.997 27.8104 192.852 27.6653C192.707 27.5203 192.592 27.348 192.514 27.1584C192.435 26.9689 192.395 26.7657 192.395 26.5605V20.3125C192.395 19.4492 193.094 18.7504 193.957 18.7504C194.82 18.7504 195.519 19.4492 195.519 20.3125V26.5605C195.519 26.7657 195.479 26.9689 195.4 27.1584C195.322 27.348 195.207 27.5203 195.062 27.6653C194.917 27.8104 194.745 27.9255 194.555 28.0039C194.365 28.0824 194.162 28.1227 193.957 28.1226ZM206.454 28.1226C206.248 28.1227 206.045 28.0824 205.856 28.0039C205.666 27.9255 205.494 27.8104 205.349 27.6653C205.204 27.5203 205.089 27.348 205.01 27.1584C204.932 26.9689 204.891 26.7657 204.891 26.5605V20.3125C204.891 19.4492 205.59 18.7504 206.454 18.7504C207.317 18.7504 208.016 19.4492 208.016 20.3125V26.5605C208.016 26.7657 207.975 26.9689 207.897 27.1584C207.818 27.348 207.703 27.5203 207.558 27.6653C207.413 27.8104 207.241 27.9255 207.051 28.0039C206.862 28.0824 206.659 28.1227 206.454 28.1226ZM218.95 28.1226C218.744 28.1227 218.541 28.0824 218.352 28.0039C218.162 27.9255 217.99 27.8104 217.845 27.6653C217.7 27.5203 217.585 27.348 217.506 27.1584C217.428 26.9689 217.387 26.7657 217.388 26.5605V20.3125C217.388 19.4492 218.086 18.7504 218.95 18.7504C219.813 18.7504 220.512 19.4492 220.512 20.3125V26.5605C220.512 26.7657 220.471 26.9689 220.393 27.1584C220.315 27.348 220.199 27.5203 220.054 27.6653C219.909 27.8104 219.737 27.9255 219.548 28.0039C219.358 28.0824 219.155 28.1227 218.95 28.1226ZM231.446 28.1226C231.241 28.1227 231.037 28.0824 230.848 28.0039C230.658 27.9255 230.486 27.8104 230.341 27.6653C230.196 27.5203 230.081 27.348 230.002 27.1584C229.924 26.9689 229.883 26.7657 229.884 26.5605V20.3125C229.883 20.1073 229.924 19.9041 230.002 19.7146C230.081 19.525 230.196 19.3527 230.341 19.2077C230.486 19.0626 230.658 18.9475 230.848 18.8691C231.037 18.7906 231.241 18.7503 231.446 18.7504C231.651 18.7503 231.854 18.7906 232.044 18.8691C232.233 18.9475 232.405 19.0626 232.551 19.2077C232.696 19.3527 232.811 19.525 232.889 19.7146C232.968 19.9041 233.008 20.1073 233.008 20.3125V26.5605C233.008 26.7657 232.968 26.9689 232.889 27.1584C232.811 27.348 232.696 27.5203 232.551 27.6653C232.405 27.8104 232.233 27.9255 232.044 28.0039C231.854 28.0824 231.651 28.1227 231.446 28.1226ZM340.788 28.1226C339.924 28.1226 339.225 27.4238 339.225 26.5605V20.3125C339.225 20.1073 339.265 19.9041 339.344 19.7145C339.422 19.5249 339.537 19.3526 339.682 19.2075C339.828 19.0625 340 18.9474 340.189 18.869C340.379 18.7905 340.582 18.7502 340.788 18.7504C340.993 18.7503 341.196 18.7907 341.385 18.8692C341.575 18.9477 341.747 19.0627 341.892 19.2078C342.037 19.3529 342.152 19.5251 342.231 19.7147C342.309 19.9042 342.349 20.1073 342.349 20.3125V26.5605C342.349 26.7657 342.309 26.9688 342.231 27.1584C342.152 27.348 342.037 27.5202 341.892 27.6653C341.747 27.8104 341.575 27.9255 341.385 28.0039C341.196 28.0824 340.993 28.1227 340.788 28.1226ZM334.539 28.1226C334.334 28.1227 334.13 28.0823 333.941 28.0038C333.751 27.9253 333.579 27.8103 333.434 27.6652C333.289 27.5201 333.174 27.3479 333.096 27.1583C333.017 26.9688 332.977 26.7657 332.977 26.5605V20.3125C332.977 20.1073 333.017 19.9042 333.096 19.7147C333.174 19.5251 333.289 19.3529 333.434 19.2078C333.579 19.0627 333.751 18.9477 333.941 18.8692C334.13 18.7907 334.334 18.7503 334.539 18.7504C335.402 18.7504 336.101 19.4492 336.101 20.3125V26.5605C336.101 26.7657 336.061 26.9689 335.982 27.1585C335.904 27.3481 335.789 27.5204 335.644 27.6655C335.499 27.8106 335.326 27.9256 335.137 28.004C334.947 28.0825 334.744 28.1228 334.539 28.1226ZM325.167 28.1226C324.962 28.1227 324.759 28.0824 324.569 28.0039C324.379 27.9255 324.207 27.8104 324.062 27.6653C323.917 27.5202 323.802 27.348 323.724 27.1584C323.645 26.9688 323.605 26.7657 323.605 26.5605V20.3125C323.605 19.4492 324.303 18.7504 325.167 18.7504C326.03 18.7504 326.729 19.4492 326.729 20.3125V26.5605C326.729 26.7657 326.688 26.9689 326.61 27.1585C326.532 27.3481 326.417 27.5203 326.272 27.6654C326.127 27.8105 325.954 27.9256 325.765 28.004C325.575 28.0825 325.372 28.1228 325.167 28.1226ZM318.919 28.1226C318.055 28.1226 317.357 27.4238 317.357 26.5605V20.3125C317.357 20.1073 317.397 19.9041 317.475 19.7145C317.554 19.5249 317.669 19.3526 317.814 19.2075C317.959 19.0625 318.132 18.9474 318.321 18.869C318.511 18.7905 318.714 18.7502 318.919 18.7504C319.124 18.7503 319.327 18.7907 319.517 18.8692C319.706 18.9477 319.879 19.0627 320.024 19.2078C320.169 19.3529 320.284 19.5251 320.362 19.7147C320.441 19.9042 320.481 20.1073 320.481 20.3125V26.5605C320.481 26.7657 320.441 26.9688 320.362 27.1584C320.284 27.348 320.169 27.5202 320.024 27.6653C319.879 27.8104 319.707 27.9255 319.517 28.0039C319.327 28.0824 319.124 28.1227 318.919 28.1226ZM312.671 28.1226C312.466 28.1227 312.262 28.0824 312.073 28.0039C311.883 27.9255 311.711 27.8104 311.566 27.6653C311.421 27.5202 311.306 27.348 311.228 27.1584C311.149 26.9688 311.109 26.7657 311.109 26.5605V20.3125C311.109 19.4492 311.807 18.7504 312.671 18.7504C313.534 18.7504 314.232 19.4492 314.232 20.3125V26.5605C314.233 26.7657 314.192 26.9689 314.114 27.1585C314.036 27.3481 313.921 27.5203 313.776 27.6654C313.63 27.8105 313.458 27.9256 313.269 28.004C313.079 28.0825 312.876 28.1228 312.671 28.1226ZM306.423 28.1226C305.559 28.1226 304.861 27.4238 304.861 26.5605V20.3125C304.86 20.1073 304.901 19.9041 304.979 19.7145C305.058 19.5249 305.173 19.3526 305.318 19.2075C305.463 19.0625 305.635 18.9474 305.825 18.869C306.015 18.7905 306.218 18.7502 306.423 18.7504C306.628 18.7503 306.831 18.7907 307.021 18.8692C307.21 18.9477 307.383 19.0627 307.528 19.2078C307.673 19.3529 307.788 19.5251 307.866 19.7147C307.945 19.9042 307.985 20.1073 307.985 20.3125V26.5605C307.985 26.7657 307.945 26.9688 307.866 27.1584C307.788 27.348 307.673 27.5202 307.528 27.6653C307.383 27.8104 307.21 27.9255 307.021 28.0039C306.831 28.0824 306.628 28.1227 306.423 28.1226ZM300.175 28.1226C299.969 28.1227 299.766 28.0824 299.577 28.0039C299.387 27.9255 299.215 27.8104 299.07 27.6653C298.925 27.5202 298.81 27.348 298.731 27.1584C298.653 26.9688 298.613 26.7657 298.613 26.5605V20.3125C298.613 19.4492 299.311 18.7504 300.175 18.7504C301.038 18.7504 301.737 19.4492 301.737 20.3125V26.5605C301.737 26.7657 301.697 26.9689 301.618 27.1585C301.54 27.3481 301.425 27.5204 301.28 27.6655C301.135 27.8106 300.962 27.9256 300.773 28.004C300.583 28.0825 300.38 28.1228 300.175 28.1226Z" fill="black"/>
<path d="M233.008 112.472H217.387C217.182 112.472 216.979 112.432 216.789 112.353C216.6 112.275 216.428 112.16 216.282 112.015C216.137 111.87 216.022 111.697 215.944 111.508C215.865 111.318 215.825 111.115 215.825 110.91V95.2899C215.825 95.0847 215.865 94.8815 215.944 94.6919C216.022 94.5024 216.137 94.3301 216.282 94.185C216.428 94.04 216.6 93.9249 216.789 93.8464C216.979 93.768 217.182 93.7276 217.387 93.7277H233.008C233.213 93.7276 233.416 93.768 233.606 93.8464C233.795 93.9249 233.967 94.04 234.112 94.185C234.258 94.3301 234.373 94.5024 234.451 94.6919C234.529 94.8815 234.57 95.0847 234.57 95.2899V110.91C234.57 111.115 234.529 111.318 234.451 111.508C234.373 111.697 234.258 111.87 234.112 112.015C233.967 112.16 233.795 112.275 233.606 112.353C233.416 112.432 233.213 112.472 233.008 112.472ZM218.949 109.348H231.446V96.8516H218.949V109.348ZM276.806 112.472H261.124C260.858 112.472 260.597 112.403 260.364 112.274C260.132 112.144 259.936 111.957 259.796 111.731C259.656 111.504 259.576 111.246 259.564 110.98C259.552 110.714 259.608 110.45 259.727 110.211L267.537 94.591C268.068 93.5324 269.801 93.5324 270.331 94.591L277.971 109.866C278.228 110.153 278.369 110.525 278.368 110.91C278.368 111.115 278.327 111.318 278.249 111.508C278.17 111.697 278.055 111.869 277.91 112.014C277.765 112.16 277.593 112.275 277.404 112.353C277.214 112.432 277.011 112.472 276.806 112.472ZM263.65 109.348H274.219L268.935 98.7828L263.65 109.348ZM295.488 112.472H286.117C285.755 112.472 285.405 112.347 285.126 112.117C284.846 111.888 284.655 111.569 284.585 111.215L281.461 95.5961C281.416 95.3695 281.421 95.1357 281.477 94.9115C281.533 94.6873 281.638 94.4783 281.785 94.2995C281.931 94.1208 282.115 93.9768 282.324 93.8778C282.533 93.7789 282.761 93.7275 282.992 93.7274H298.613C298.844 93.7277 299.072 93.7792 299.28 93.8782C299.489 93.9773 299.673 94.1213 299.82 94.3C299.966 94.4787 300.071 94.6876 300.127 94.9117C300.183 95.1358 300.189 95.3695 300.144 95.5961L297.02 111.215C296.949 111.569 296.758 111.888 296.479 112.117C296.2 112.347 295.85 112.472 295.488 112.472ZM287.397 109.348H294.208L296.709 96.8516H284.896L287.397 109.348ZM247.065 112.472C244.562 112.472 242.21 111.496 240.439 109.726C238.668 107.957 237.694 105.602 237.694 103.1C237.694 100.597 238.668 98.243 240.439 96.4734C243.981 92.9317 250.15 92.9317 253.692 96.4734C255.463 98.243 256.438 100.597 256.438 103.1C256.441 104.331 256.2 105.551 255.729 106.688C255.257 107.826 254.565 108.858 253.692 109.726C251.921 111.496 249.569 112.472 247.065 112.472ZM247.065 96.8516C245.397 96.8516 243.829 97.5016 242.648 98.682C241.467 99.8625 240.817 101.431 240.817 103.1C240.815 103.921 240.976 104.734 241.29 105.492C241.604 106.25 242.066 106.939 242.648 107.518C245.009 109.879 249.122 109.879 251.483 107.518C252.065 106.939 252.527 106.25 252.841 105.492C253.155 104.734 253.316 103.921 253.313 103.1C253.313 101.431 252.664 99.8629 251.483 98.682C250.302 97.5012 248.735 96.8516 247.065 96.8516Z" fill="black"/>
<path d="M307.985 118.72H208.016C207.733 118.72 207.456 118.644 207.213 118.499C206.971 118.354 206.772 118.145 206.638 117.896C206.505 117.647 206.442 117.366 206.456 117.083C206.47 116.801 206.56 116.527 206.716 116.292L212.964 106.92C213.107 106.706 213.301 106.531 213.527 106.409C213.754 106.288 214.007 106.225 214.264 106.224H217.388C217.593 106.224 217.796 106.264 217.986 106.343C218.175 106.421 218.347 106.536 218.492 106.682C218.638 106.827 218.753 106.999 218.831 107.188C218.91 107.378 218.95 107.581 218.95 107.786V109.348H231.446V107.786C231.446 107.581 231.486 107.378 231.564 107.188C231.643 106.999 231.758 106.826 231.903 106.681C232.048 106.536 232.22 106.421 232.41 106.343C232.6 106.264 232.803 106.224 233.008 106.224H240.861C241.349 106.224 241.81 106.453 242.106 106.84C242.347 107.164 242.483 107.353 242.649 107.518C245.01 109.879 249.123 109.879 251.484 107.518C251.651 107.353 251.786 107.164 251.925 106.98C252.219 106.587 252.781 106.224 253.272 106.224H261.125C261.33 106.224 261.533 106.264 261.723 106.343C261.912 106.421 262.084 106.536 262.229 106.681C262.375 106.826 262.49 106.998 262.568 107.188C262.646 107.378 262.687 107.581 262.687 107.786V109.348H275.183V107.786C275.182 107.581 275.223 107.378 275.301 107.188C275.38 106.998 275.495 106.826 275.64 106.681C275.785 106.536 275.957 106.421 276.147 106.342C276.337 106.264 276.54 106.224 276.745 106.224H285.492C285.853 106.224 286.203 106.349 286.482 106.578C286.761 106.808 286.952 107.127 287.023 107.481L287.398 109.348H294.208L294.583 107.481C294.654 107.126 294.845 106.807 295.124 106.578C295.404 106.349 295.754 106.224 296.115 106.224H301.738C302.259 106.224 302.747 106.486 303.037 106.919L309.285 116.291C309.441 116.527 309.53 116.801 309.544 117.083C309.558 117.365 309.496 117.646 309.364 117.896C309.23 118.145 309.031 118.353 308.788 118.498C308.545 118.643 308.268 118.72 307.985 118.72ZM210.934 115.596H305.068L300.901 109.348H297.392L297.02 111.215C296.95 111.569 296.759 111.888 296.479 112.117C296.2 112.347 295.85 112.472 295.489 112.472H286.117C285.756 112.472 285.405 112.347 285.126 112.117C284.847 111.888 284.656 111.569 284.585 111.215L284.213 109.348H278.307V110.91C278.307 111.115 278.267 111.318 278.188 111.508C278.11 111.697 277.995 111.869 277.85 112.014C277.705 112.159 277.532 112.275 277.343 112.353C277.153 112.432 276.95 112.472 276.745 112.472H261.125C260.261 112.472 259.562 111.773 259.562 110.91V109.348H254.036C253.922 109.485 253.812 109.607 253.693 109.726C250.151 113.268 243.982 113.268 240.44 109.726C240.32 109.605 240.206 109.479 240.097 109.348H234.57V110.91C234.57 111.115 234.53 111.318 234.451 111.508C234.373 111.697 234.258 111.869 234.113 112.015C233.968 112.16 233.795 112.275 233.606 112.353C233.416 112.432 233.213 112.472 233.008 112.472H217.388C217.183 112.472 216.979 112.432 216.79 112.353C216.6 112.275 216.428 112.16 216.283 112.015C216.138 111.869 216.023 111.697 215.944 111.508C215.866 111.318 215.825 111.115 215.826 110.91V109.348H215.099L210.934 115.596Z" fill="black"/>
<path d="M197.081 50.491H225.198C225.338 50.491 225.476 50.5188 225.604 50.5721C225.733 50.6254 225.851 50.7031 225.949 50.8016C226.048 50.9002 226.126 51.0175 226.18 51.1463C226.22 51.2431 226.245 51.3452 226.255 51.449L226.26 51.5526V70.2977L226.255 70.4022C226.245 70.5057 226.22 70.6074 226.18 70.7039C226.126 70.8328 226.048 70.95 225.949 71.0486C225.851 71.1472 225.733 71.2258 225.604 71.2791C225.476 71.3324 225.338 71.3593 225.198 71.3592H197.081C196.942 71.3592 196.804 71.3324 196.675 71.2791C196.546 71.2258 196.429 71.1473 196.33 71.0486C196.232 70.9501 196.154 70.8327 196.101 70.7039C196.047 70.5751 196.019 70.4371 196.02 70.2977V51.5526C196.02 51.4132 196.047 51.2751 196.101 51.1463C196.154 51.0175 196.232 50.9001 196.33 50.8016C196.429 50.703 196.546 50.6254 196.675 50.5721C196.772 50.532 196.874 50.5061 196.978 50.4959L197.081 50.491ZM198.144 69.2352H224.136V52.6151H198.144V69.2352Z" fill="black" stroke="black"/>
<path d="M212.701 53.1152H197.081C196.815 53.115 196.553 53.0469 196.321 52.9172C196.088 52.7875 195.893 52.6005 195.753 52.3741C195.613 52.1476 195.533 51.8892 195.521 51.6233C195.509 51.3574 195.565 51.0928 195.684 50.8547L198.808 44.6066C198.938 44.3472 199.137 44.1291 199.384 43.9766C199.631 43.8242 199.915 43.7434 200.205 43.7433H212.701C212.906 43.7432 213.11 43.7836 213.299 43.862C213.489 43.9405 213.661 44.0556 213.806 44.2006C213.951 44.3457 214.066 44.518 214.145 44.7075C214.223 44.8971 214.264 45.1003 214.263 45.3055V51.5535C214.263 51.7586 214.223 51.9618 214.145 52.1513C214.066 52.3408 213.951 52.513 213.806 52.6581C213.661 52.8031 213.489 52.9181 213.299 52.9966C213.11 53.075 212.906 53.1153 212.701 53.1152ZM199.609 49.991H211.139V46.8672H201.17L199.609 49.991ZM222.073 78.1074H200.205C200 78.1075 199.796 78.0672 199.607 77.9887C199.417 77.9102 199.245 77.7952 199.1 77.6501C198.955 77.505 198.84 77.3328 198.761 77.1432C198.683 76.9536 198.643 76.7505 198.643 76.5453C198.643 76.3401 198.683 76.137 198.761 75.9474C198.84 75.7578 198.955 75.5856 199.1 75.4405C199.245 75.2954 199.417 75.1804 199.607 75.1019C199.796 75.0234 200 74.9831 200.205 74.9832H222.073C222.278 74.9831 222.482 75.0234 222.671 75.1019C222.861 75.1804 223.033 75.2954 223.178 75.4405C223.323 75.5856 223.438 75.7578 223.517 75.9474C223.595 76.137 223.635 76.3401 223.635 76.5453C223.635 76.7505 223.595 76.9536 223.517 77.1432C223.438 77.3328 223.323 77.505 223.178 77.6501C223.033 77.7952 222.861 77.9102 222.671 77.9887C222.482 78.0672 222.278 78.1075 222.073 78.1074Z" fill="black"/>
<path d="M272.058 71.8594H243.942C243.737 71.8595 243.534 71.8192 243.344 71.7407C243.155 71.6622 242.982 71.5472 242.837 71.4021C242.692 71.257 242.577 71.0848 242.499 70.8952C242.42 70.7056 242.38 70.5024 242.38 70.2973V51.5531C242.38 51.348 242.42 51.1448 242.499 50.9552C242.577 50.7657 242.692 50.5934 242.837 50.4483C242.982 50.3033 243.155 50.1882 243.344 50.1097C243.534 50.0313 243.737 49.9909 243.942 49.991H272.058C272.922 49.991 273.621 50.6899 273.621 51.5531V70.2973C273.621 70.5025 273.58 70.7057 273.502 70.8953C273.423 71.0849 273.308 71.2571 273.163 71.4022C273.018 71.5473 272.846 71.6624 272.656 71.7408C272.466 71.8192 272.263 71.8595 272.058 71.8594ZM245.504 68.7352H270.496V53.1153H245.504V68.7352Z" fill="black"/>
<path d="M259.562 53.1152H243.942C243.676 53.1151 243.414 53.047 243.181 52.9173C242.949 52.7876 242.753 52.6007 242.613 52.3742C242.473 52.1478 242.394 51.8893 242.381 51.6234C242.369 51.3575 242.426 51.0928 242.544 50.8547L245.669 44.6066C245.799 44.3472 245.998 44.1291 246.245 43.9766C246.492 43.8241 246.776 43.7434 247.066 43.7433H259.562C260.426 43.7433 261.125 44.4422 261.125 45.3055V51.5535C261.125 51.7587 261.084 51.9618 261.005 52.1514C260.927 52.3409 260.812 52.5131 260.667 52.6581C260.521 52.8031 260.349 52.9181 260.16 52.9966C259.97 53.075 259.767 53.1153 259.562 53.1152ZM246.469 49.991H258V46.8672H248.031L246.469 49.991ZM268.934 78.1074H247.066C246.86 78.1075 246.657 78.0672 246.468 77.9887C246.278 77.9102 246.106 77.7952 245.961 77.6501C245.816 77.505 245.701 77.3328 245.622 77.1432C245.544 76.9536 245.503 76.7505 245.503 76.5453C245.503 76.3401 245.544 76.137 245.622 75.9474C245.701 75.7578 245.816 75.5856 245.961 75.4405C246.106 75.2954 246.278 75.1804 246.468 75.1019C246.657 75.0234 246.86 74.9831 247.066 74.9832H268.934C269.139 74.9831 269.343 75.0235 269.532 75.102C269.722 75.1805 269.894 75.2956 270.039 75.4406C270.184 75.5857 270.299 75.7579 270.377 75.9475C270.456 76.137 270.496 76.3402 270.496 76.5453C270.496 76.7504 270.456 76.9536 270.377 77.1431C270.299 77.3327 270.184 77.5049 270.039 77.65C269.894 77.795 269.722 77.9101 269.532 77.9886C269.343 78.0671 269.139 78.1075 268.934 78.1074Z" fill="black"/>
<path d="M318.919 71.8594H290.802C290.597 71.8595 290.394 71.8192 290.204 71.7407C290.015 71.6622 289.842 71.5471 289.697 71.4021C289.552 71.257 289.437 71.0847 289.359 70.8952C289.28 70.7056 289.24 70.5024 289.24 70.2973V51.5531C289.24 51.348 289.28 51.1448 289.359 50.9553C289.437 50.7657 289.552 50.5934 289.697 50.4484C289.842 50.3033 290.015 50.1882 290.204 50.1097C290.394 50.0313 290.597 49.9909 290.802 49.991H318.919C319.124 49.991 319.327 50.0314 319.517 50.1098C319.706 50.1883 319.878 50.3034 320.023 50.4485C320.168 50.5935 320.283 50.7658 320.362 50.9553C320.44 51.1449 320.481 51.348 320.48 51.5531V70.2973C320.481 70.5024 320.44 70.7056 320.362 70.8951C320.283 71.0846 320.168 71.2569 320.023 71.4019C319.878 71.547 319.706 71.6621 319.517 71.7406C319.327 71.8191 319.124 71.8594 318.919 71.8594ZM292.364 68.7352H317.356V53.1153H292.364V68.7352Z" fill="black"/>
<path d="M306.424 53.1152H290.803C290.537 53.1155 290.275 53.0476 290.042 52.9181C289.809 52.7885 289.614 52.6015 289.474 52.375C289.333 52.1484 289.254 51.8898 289.242 51.6237C289.23 51.3576 289.286 51.0928 289.406 50.8547L292.53 44.6066C292.66 44.3472 292.859 44.129 293.106 43.9765C293.353 43.8241 293.637 43.7433 293.927 43.7433H306.424C306.629 43.7433 306.832 43.7837 307.021 43.8622C307.211 43.9406 307.383 44.0557 307.528 44.2008C307.673 44.3459 307.788 44.5181 307.867 44.7076C307.945 44.8972 307.985 45.1003 307.985 45.3055V51.5535C307.985 51.7586 307.945 51.9617 307.866 52.1512C307.788 52.3407 307.673 52.5129 307.528 52.6579C307.383 52.8029 307.211 52.918 307.021 52.9964C306.832 53.0749 306.629 53.1153 306.424 53.1152ZM293.329 49.991H304.861V46.8672H294.891L293.329 49.991ZM315.795 78.1074H293.927C293.064 78.1074 292.365 77.4086 292.365 76.5453C292.365 76.3401 292.405 76.1369 292.484 75.9473C292.562 75.7577 292.677 75.5854 292.822 75.4404C292.967 75.2953 293.14 75.1802 293.329 75.1018C293.519 75.0233 293.722 74.983 293.927 74.9832H315.795C316.001 74.9831 316.204 75.0234 316.393 75.1019C316.583 75.1804 316.755 75.2954 316.9 75.4405C317.045 75.5856 317.16 75.7578 317.239 75.9474C317.317 76.137 317.357 76.3401 317.357 76.5453C317.357 76.7504 317.317 76.9536 317.239 77.1432C317.16 77.3328 317.045 77.505 316.9 77.6501C316.755 77.7952 316.583 77.9102 316.393 77.9887C316.204 78.0672 316.001 78.1075 315.795 78.1074Z" fill="black"/>
<path d="M347.036 156.257H168.965C162.937 156.257 158.031 151.352 158.031 145.323V20.3614C158.031 14.3328 162.937 9.42737 168.965 9.42737H347.036C353.064 9.42737 357.97 14.3332 357.97 20.3614V145.323C357.97 151.352 353.064 156.257 347.036 156.257ZM168.965 12.5512C164.659 12.5512 161.155 16.0551 161.155 20.3614V145.323C161.155 149.63 164.659 153.133 168.965 153.133H347.036C351.344 153.133 354.846 149.63 354.846 145.323V20.3614C354.846 16.0551 351.344 12.5512 347.036 12.5512H168.965Z" fill="black"/>
<path d="M347.036 162.457H168.965C162.835 162.457 158.031 157.655 158.031 151.523V145.275C158.031 145.069 158.071 144.866 158.15 144.677C158.228 144.487 158.343 144.315 158.489 144.17C158.634 144.025 158.806 143.91 158.995 143.831C159.185 143.753 159.388 143.712 159.593 143.713C159.799 143.712 160.002 143.753 160.191 143.831C160.381 143.91 160.553 144.025 160.698 144.17C160.843 144.315 160.958 144.487 161.037 144.677C161.115 144.866 161.156 145.069 161.155 145.275V151.523C161.155 155.904 164.586 159.332 168.966 159.332H347.036C351.418 159.332 354.846 155.904 354.846 151.523V145.323C354.846 145.118 354.886 144.915 354.965 144.725C355.043 144.536 355.158 144.364 355.304 144.219C355.449 144.073 355.621 143.958 355.811 143.88C356 143.801 356.203 143.761 356.409 143.761C356.614 143.761 356.817 143.802 357.006 143.88C357.196 143.959 357.368 144.074 357.513 144.219C357.658 144.364 357.773 144.536 357.852 144.726C357.93 144.915 357.97 145.118 357.97 145.323V151.523C357.97 157.655 353.168 162.457 347.036 162.457Z" fill="black"/>
<defs>
<clipPath id="clip0_1921_78">
<rect width="150" height="150" fill="white" transform="translate(0 22)"/>
</clipPath>
<clipPath id="clip1_1921_78">
<rect width="200" height="149" fill="white" transform="matrix(-1 0 0 1 566 24)"/>
</clipPath>
</defs>
</svg>
