<svg width="122" height="121" viewBox="0 0 122 121" fill="#ffffff" xmlns="http://www.w3.org/2000/svg">
<path d="M52.564 101.064H102.356V115.144H52.564V101.064ZM45.396 66.888H110.036V120.008H94.42V80.968H60.372V120.392H45.396V66.888ZM34.9 42.824C41.044 42.568 48.1267 42.2267 56.148 41.8C64.2547 41.3733 72.788 40.904 81.748 40.392C90.708 39.88 99.5827 39.4107 108.372 38.984L108.244 53.064C99.796 53.7467 91.2627 54.4293 82.644 55.112C74.1107 55.7093 65.876 56.3067 57.94 56.904C50.0893 57.416 43.0067 57.8853 36.692 58.312L34.9 42.824ZM82.772 25.288L96.212 18.632C99.6253 22.3867 102.953 26.5253 106.196 31.048C109.524 35.4853 112.553 39.88 115.284 44.232C118.015 48.584 120.148 52.552 121.684 56.136L107.476 64.072C106.025 60.488 103.935 56.4347 101.204 51.912C98.5587 47.304 95.6147 42.696 92.372 38.088C89.2147 33.3947 86.0147 29.128 82.772 25.288ZM62.42 0.0719986L80.212 3.91199C78.164 9.45866 75.86 15.1333 73.3 20.936C70.8253 26.7387 68.308 32.2853 65.748 37.576C63.2733 42.8667 60.884 47.56 58.58 51.656L44.756 47.56C46.4627 44.3173 48.1267 40.776 49.748 36.936C51.4547 33.0107 53.076 28.9147 54.612 24.648C56.2333 20.3813 57.7267 16.1573 59.092 11.976C60.4573 7.70933 61.5667 3.74133 62.42 0.0719986ZM7.892 12.104L16.34 0.583992C19.0707 1.52266 21.972 2.76 25.044 4.296C28.2013 5.74666 31.188 7.28266 34.004 8.90399C36.82 10.44 39.124 11.976 40.916 13.512L31.828 26.44C30.2067 24.904 28.0307 23.2827 25.3 21.576C22.6547 19.784 19.796 18.0773 16.724 16.456C13.652 14.7493 10.708 13.2987 7.892 12.104ZM0.0840001 47.048L8.532 35.272C11.348 36.2107 14.292 37.3627 17.364 38.728C20.5213 40.0933 23.508 41.544 26.324 43.08C29.2253 44.616 31.6147 46.1093 33.492 47.56L24.404 60.616C22.7827 59.08 20.564 57.5013 17.748 55.88C15.0173 54.1733 12.116 52.552 9.044 51.016C5.972 49.3947 2.98533 48.072 0.0840001 47.048ZM4.436 108.616C6.65467 105.373 9.12933 101.533 11.86 97.096C14.676 92.6587 17.492 87.9653 20.308 83.016C23.124 78.0667 25.812 73.1173 28.372 68.168L39.764 78.28C37.6307 82.7173 35.3267 87.2827 32.852 91.976C30.3773 96.6693 27.86 101.277 25.3 105.8C22.74 110.323 20.18 114.675 17.62 118.856L4.436 108.616Z" fill="#00000080"/>
</svg>
