<svg width="84" height="67" viewBox="0 0 84 67" fill="none" xmlns="http://www.w3.org/2000/svg">
<path d="M33.441 2.384H46.881V16.592C46.881 22.8213 46.0703 28.624 44.449 34C42.913 39.376 40.5237 44.24 37.281 48.592C34.0383 52.8587 29.985 56.5707 25.121 59.728C20.3423 62.8 14.7103 65.1893 8.225 66.896L0.417002 53.968C6.13434 52.688 11.0837 50.8533 15.265 48.464C19.4463 45.9893 22.8597 43.1307 25.505 39.888C28.2357 36.56 30.241 32.9333 31.521 29.008C32.801 25.0827 33.441 20.944 33.441 16.592V2.384ZM36.769 2.384H50.337V16.592C50.337 20.944 50.977 25.0827 52.257 29.008C53.537 32.9333 55.4997 36.56 58.145 39.888C60.8757 43.1307 64.289 45.9893 68.385 48.464C72.5663 50.8533 77.5583 52.688 83.361 53.968L75.553 66.896C69.0677 65.1893 63.393 62.8 58.529 59.728C53.7503 56.5707 49.7397 52.8587 46.497 48.592C43.2543 44.24 40.8223 39.376 39.201 34C37.5797 28.624 36.769 22.8213 36.769 16.592V2.384ZM4.385 0.0799942H80.033V13.52H4.385V0.0799942Z" fill="#C9CCD91A"/>
</svg>
